<svg xmlns="http://www.w3.org/2000/svg" version="1.0" preserveAspectRatio="xMidYMid meet" viewBox="44 127.16 447.23 174.51">

<g transform="translate(0.000000,459.000000) scale(0.100000,-0.100000)" fill="#000000" stroke="none">
<path d="M1300 3286 c0 -34 -1 -35 -42 -38 -39 -3 -43 -6 -46 -30 -3 -25 0 -28 27 -28 29 0 31 -3 31 -35 0 -24 5 -35 15 -35 11 0 15 -12 15 -45 0 -33 -4 -45 -15 -45 -10 0 -15 -10 -15 -30 0 -20 5 -30 15 -30 12 0 15 -14 15 -70 0 -56 -3 -70 -15 -70 -10 0 -15 -10 -15 -34 0 -30 -3 -35 -27 -38 -23 -2 -29 -9 -33 -38 -4 -31 -9 -35 -37 -38 -27 -3 -33 -8 -33 -27 0 -19 6 -24 33 -27 28 -3 33 -7 37 -38 5 -33 7 -35 48 -38 36 -3 42 -6 42 -26 0 -14 10 -28 25 -36 44 -23 44 -66 -1 -95 l-24 -15 0 50 c0 38 -4 50 -15 50 -12 0 -15 -14 -15 -65 0 -51 3 -65 15 -65 11 0 15 -12 15 -45 0 -33 -4 -45 -15 -45 -9 0 -15 -9 -15 -25 0 -16 6 -25 15 -25 12 0 15 -16 15 -80 0 -64 -3 -80 -15 -80 -10 0 -15 -11 -15 -35 0 -32 -2 -35 -31 -35 -27 0 -30 -3 -27 -27 3 -25 7 -28 46 -31 42 -3 42 -3 42 -43 0 -28 -4 -39 -15 -39 -12 0 -15 -14 -15 -65 0 -51 3 -65 15 -65 11 0 15 -11 15 -40 0 -29 -4 -40 -15 -40 -9 0 -15 -9 -15 -24 0 -32 44 -44 71 -20 29 26 32 50 11 98 -12 26 -21 73 -23 117 l-4 73 30 7 c129 30 128 30 136 17 5 -7 11 -44 15 -82 9 -93 41 -125 95 -96 30 16 26 80 -7 111 -29 27 -54 70 -54 93 0 9 15 23 33 32 17 9 45 28 62 42 l30 25 63 -69 c35 -38 75 -94 89 -124 48 -101 84 -121 137 -79 23 18 27 28 24 63 -3 39 -6 42 -61 70 -32 16 -92 62 -135 101 l-76 72 43 71 c24 40 45 72 48 72 14 0 64 -34 81 -55 46 -58 115 -49 120 17 4 48 -20 64 -107 71 -65 5 -86 19 -75 47 3 8 11 41 17 73 l12 57 56 0 c31 0 78 -7 105 -15 27 -8 61 -15 75 -15 61 0 81 89 27 120 -25 13 -32 13 -80 -4 -71 -25 -176 -34 -182 -15 -2 8 -9 39 -16 69 -7 30 -15 60 -17 66 -6 18 55 44 101 44 72 0 106 45 76 101 -16 28 -75 26 -95 -4 -15 -23 -92 -73 -100 -65 -3 2 -23 32 -45 67 l-41 63 38 41 c20 23 49 51 63 62 14 10 29 25 33 32 4 7 15 13 22 13 8 0 15 4 15 9 0 5 12 12 28 16 74 18 99 104 43 144 -53 38 -79 22 -136 -84 -22 -40 -64 -99 -94 -131 -45 -47 -57 -55 -70 -45 -9 6 -37 25 -63 42 -27 17 -48 35 -48 39 0 21 26 67 52 93 21 20 28 37 28 66 0 33 -4 40 -29 51 -21 8 -35 9 -49 1 -24 -13 -28 -25 -37 -107 -9 -86 -12 -89 -76 -74 -113 26 -104 18 -101 96 2 39 12 88 23 113 25 56 24 67 -6 96 -33 34 -45 31 -45 -9z m116 -437 c32 -36 -15 -83 -60 -60 -33 18 -40 40 -20 62 22 25 56 24 80 -2z m-116 -194 c0 -33 -4 -45 -15 -45 -11 0 -15 12 -15 45 0 33 4 45 15 45 11 0 15 -12 15 -45z m130 11 c6 -8 10 -25 8 -38 -2 -18 -10 -24 -35 -26 -36 -4 -59 24 -48 58 8 24 56 27 75 6z m246 -13 c7 -10 14 -34 14 -53 0 -60 -39 -79 -77 -37 -28 31 -34 53 -23 82 7 19 17 25 41 25 19 0 37 -7 45 -17z m22 -255 c18 -18 15 -46 -7 -69 -39 -42 -87 10 -55 58 16 25 43 30 62 11z m-188 -44 c28 -33 -21 -101 -57 -78 -25 15 -27 38 -7 68 19 29 45 33 64 10z m49 -206 c14 -25 14 -29 -5 -55 -17 -22 -29 -28 -60 -28 -37 0 -39 2 -42 34 -7 71 75 108 107 49z"/>
<path d="M442 3073 l3 -238 238 -3 237 -2 0 240 0 240 -240 0 -240 0 2 -237z m416 5 l2 -178 -180 0 -180 0 0 173 c0 96 3 177 7 181 4 3 84 5 177 4 l171 -3 3 -177z"/>
<path d="M580 3074 l0 -105 98 3 97 3 0 100 0 100 -97 2 -98 2 0 -105z"/>
<path d="M1000 3140 l0 -170 29 0 c27 0 30 3 33 38 l3 37 103 3 c101 3 102 3 102 27 0 25 0 25 -105 25 l-106 0 3 78 3 77 68 3 c64 3 67 4 67 27 0 25 0 25 -100 25 l-100 0 0 -170z"/>
<path d="M1070 2935 c0 -21 5 -25 30 -25 25 0 30 4 30 25 0 21 -5 25 -30 25 -25 0 -30 -4 -30 -25z"/>
<path d="M1210 2935 c0 -21 5 -25 30 -25 25 0 30 4 30 25 0 21 -5 25 -30 25 -25 0 -30 -4 -30 -25z"/>
<path d="M1000 2725 l0 -175 65 0 65 0 0 30 c0 28 -3 30 -35 30 l-35 0 0 145 0 145 -30 0 -30 0 0 -175z"/>
<path d="M447 2753 c-4 -3 -7 -66 -7 -140 l0 -133 30 0 30 0 0 140 c0 140 0 140 -23 140 -13 0 -27 -3 -30 -7z"/>
<path d="M580 2730 c0 -25 4 -30 25 -30 21 0 25 5 25 30 0 25 -4 30 -25 30 -21 0 -25 -5 -25 -30z"/>
<path d="M867 2754 c-4 -4 -7 -18 -7 -31 0 -19 5 -23 31 -23 27 0 30 3 27 28 -3 26 -34 43 -51 26z"/>
<path d="M720 2655 c0 -24 2 -25 65 -25 63 0 65 1 65 25 0 24 -2 25 -65 25 -63 0 -65 -1 -65 -25z"/>
<path d="M860 2580 c0 -27 3 -30 30 -30 27 0 30 3 30 30 0 27 -3 30 -30 30 -27 0 -30 -3 -30 -30z"/>
<path d="M580 2510 c0 -28 -3 -30 -35 -30 l-35 0 0 -69 0 -70 -32 -3 -33 -3 0 -100 0 -100 165 0 165 0 3 28 3 27 -141 0 -141 0 3 43 c3 39 5 42 36 45 l32 3 0 65 0 65 38 -3 c32 -3 37 -7 40 -30 3 -22 9 -27 35 -30 28 -3 32 -7 35 -35 l3 -33 170 0 169 0 0 65 0 65 70 0 70 0 0 35 0 35 -100 0 -100 0 0 -70 0 -70 -75 0 -75 0 0 35 c0 33 2 35 35 35 33 0 35 2 35 35 0 33 -2 35 -35 35 -32 0 -35 2 -35 30 l0 30 -65 0 -65 0 0 -30 c0 -29 -2 -30 -45 -30 -43 0 -45 1 -45 30 0 25 -4 30 -25 30 -21 0 -25 -5 -25 -30z"/>
<path d="M2498 2515 c-13 -17 -18 -43 -18 -89 l0 -66 131 0 130 0 -3 -42 -3 -43 -134 -3 -134 -3 23 -24 c23 -24 28 -25 163 -25 132 0 140 1 158 23 14 17 18 38 19 90 l0 67 -130 0 -130 0 0 38 c0 21 5 43 12 50 8 8 49 12 119 12 84 0 111 3 123 16 9 8 16 17 16 20 0 2 -73 4 -162 4 -160 -1 -163 -1 -180 -25z"/>
<path d="M2890 2380 l0 -160 158 0 c155 1 157 1 175 25 l18 25 -131 0 -130 0 0 115 0 115 113 0 c107 0 137 7 137 32 0 4 -76 8 -170 8 l-170 0 0 -160z"/>
<path d="M3270 2380 l0 -160 50 0 50 0 0 70 0 70 85 0 85 0 0 -70 0 -70 50 0 50 0 0 160 0 160 -185 0 -185 0 0 -160z m270 70 l0 -50 -85 0 -85 0 0 50 0 50 85 0 85 0 0 -50z"/>
<path d="M3680 2380 l0 -160 45 0 44 0 3 89 3 88 125 -83 c69 -45 128 -83 133 -83 4 -1 7 69 7 154 l0 155 -50 0 -50 0 0 -86 0 -85 -31 18 c-17 10 -39 26 -49 36 -11 9 -22 17 -25 17 -3 0 -39 22 -80 50 l-75 49 0 -159z"/>
<path d="M4390 2380 l0 -160 45 0 45 0 0 160 0 160 -45 0 -45 0 0 -160z"/>
<path d="M4530 2532 c0 -21 29 -32 82 -32 l58 0 0 -140 0 -140 50 0 50 0 0 140 0 140 58 0 c46 0 63 4 77 20 18 20 17 20 -178 20 -109 0 -197 -4 -197 -8z"/>
<path d="M4100 2375 l-23 -25 126 0 c70 0 127 2 127 5 0 3 -9 14 -20 25 -17 17 -33 20 -103 20 -76 0 -86 -2 -107 -25z"/>
<path d="M1140 2275 l0 -65 30 0 30 0 0 65 0 65 -30 0 -30 0 0 -65z"/>
<path d="M862 2163 l3 -28 103 -3 102 -3 0 -34 c0 -33 2 -35 35 -35 33 0 35 -2 35 -35 0 -32 2 -35 30 -35 28 0 30 3 30 35 0 33 2 35 35 35 l35 0 0 65 0 65 -29 0 c-26 0 -30 -4 -33 -32 -3 -30 -6 -33 -38 -33 -32 0 -35 3 -38 33 l-3 32 -135 0 -135 0 3 -27z"/>
<path d="M442 1818 l3 -233 238 -3 237 -2 0 235 0 235 -240 0 -240 0 2 -232z m416 -5 l-3 -178 -175 0 -175 0 -3 178 -2 177 180 0 180 0 -2 -177z"/>
<path d="M580 1810 l0 -101 98 3 97 3 3 98 3 97 -101 0 -100 0 0 -100z"/>
<path d="M1000 1985 l0 -65 36 0 c35 0 35 -1 32 -37 -3 -35 -6 -38 -35 -41 -29 -3 -33 -7 -33 -33 l0 -30 98 3 97 3 3 27 c3 24 -1 27 -30 30 l-33 3 -3 67 -3 67 -32 3 c-28 3 -32 7 -35 36 -3 28 -7 32 -33 32 l-29 0 0 -65z"/>
<path d="M1000 1670 c0 -27 3 -30 30 -30 27 0 30 3 30 30 0 27 -3 30 -30 30 -27 0 -30 -3 -30 -30z"/>
<path d="M1140 1640 l0 -60 30 0 30 0 0 60 0 60 -30 0 -30 0 0 -60z"/>
</g>
</svg>