<svg xmlns="http://www.w3.org/2000/svg" version="1.0" preserveAspectRatio="xMidYMid meet" viewBox="128 127.02 244.2 239.98">

<g transform="translate(0.000000,459.000000) scale(0.100000,-0.100000)" fill="#f0f2f5" stroke="none">
<path d="M2510 3286 c0 -34 -1 -35 -42 -38 -39 -3 -43 -6 -46 -30 -3 -25 0 -28 27 -28 29 0 31 -3 31 -35 0 -24 5 -35 15 -35 11 0 15 -12 15 -45 0 -33 -4 -45 -15 -45 -10 0 -15 -10 -15 -30 0 -20 5 -30 15 -30 12 0 15 -14 15 -70 0 -56 -3 -70 -15 -70 -11 0 -15 -11 -15 -38 0 -35 -2 -38 -27 -37 -24 0 -29 -5 -33 -35 -4 -31 -9 -35 -37 -38 -27 -3 -33 -8 -33 -27 0 -19 6 -24 33 -27 28 -3 33 -7 37 -38 5 -33 7 -35 48 -38 36 -3 42 -6 42 -26 0 -14 10 -28 25 -36 44 -23 41 -75 -5 -100 -19 -10 -20 -7 -20 40 0 38 -4 50 -15 50 -12 0 -15 -14 -15 -65 0 -51 3 -65 15 -65 11 0 15 -12 15 -45 0 -33 -4 -45 -15 -45 -9 0 -15 -9 -15 -25 0 -16 6 -25 15 -25 12 0 15 -16 15 -80 0 -64 -3 -80 -15 -80 -10 0 -15 -11 -15 -35 0 -32 -2 -35 -31 -35 -27 0 -30 -3 -27 -27 3 -25 7 -28 46 -31 42 -3 42 -3 42 -43 0 -28 -4 -39 -15 -39 -12 0 -15 -14 -15 -65 0 -51 3 -65 15 -65 11 0 15 -11 15 -40 0 -29 -4 -40 -15 -40 -21 0 -19 -40 2 -56 15 -10 23 -9 46 4 38 23 43 53 19 110 -11 27 -21 77 -23 117 l-4 69 40 8 c22 5 58 13 79 19 49 13 53 7 62 -85 9 -93 41 -125 95 -96 30 16 26 80 -7 111 -29 27 -54 70 -54 93 0 9 15 23 33 32 17 9 44 27 60 40 15 13 33 21 40 18 23 -10 130 -149 150 -194 38 -88 79 -110 131 -69 20 16 26 29 26 58 0 42 -19 65 -62 76 -25 7 -150 106 -192 153 -18 21 -18 22 24 92 23 38 44 70 47 70 14 0 64 -34 81 -55 46 -58 115 -49 120 17 4 48 -20 64 -106 71 -35 3 -66 8 -69 11 -3 3 0 41 8 86 l13 80 56 0 c31 0 79 -7 106 -15 27 -8 61 -15 75 -15 61 0 81 89 27 119 -24 14 -32 14 -85 -4 -32 -11 -85 -20 -117 -20 l-60 0 -12 65 c-7 36 -13 72 -13 80 -1 21 45 40 94 40 71 0 105 45 75 101 -16 28 -75 26 -95 -4 -15 -23 -92 -73 -100 -65 -3 2 -23 32 -45 67 l-41 63 38 41 c20 23 49 51 63 62 14 10 29 25 33 32 4 7 15 13 22 13 8 0 15 4 15 9 0 5 12 12 28 16 74 18 99 104 43 144 -16 12 -36 21 -44 21 -21 0 -77 -58 -77 -79 0 -25 -144 -211 -164 -211 -3 0 -25 15 -49 33 -24 17 -52 37 -62 43 -17 10 -18 13 -5 45 8 19 27 46 42 61 48 47 33 127 -24 128 -35 0 -55 -34 -62 -106 -10 -98 -8 -97 -97 -78 -40 8 -77 18 -81 22 -12 12 8 155 26 189 21 42 20 55 -5 87 -29 37 -49 34 -49 -8z m116 -437 c32 -36 -15 -83 -60 -60 -33 18 -40 40 -20 62 22 25 56 24 80 -2z m-116 -194 c0 -33 -4 -45 -15 -45 -11 0 -15 12 -15 45 0 33 4 45 15 45 11 0 15 -12 15 -45z m130 11 c6 -8 10 -25 8 -38 -2 -18 -10 -24 -35 -26 -27 -3 -35 1 -44 22 -9 20 -9 29 1 41 16 19 54 19 70 1z m251 -18 c23 -29 24 -66 2 -90 -45 -50 -114 26 -87 96 9 24 62 20 85 -6z m25 -264 c13 -50 -26 -91 -62 -66 -37 25 -14 92 31 92 18 0 26 -7 31 -26z m-196 -30 c28 -33 -21 -101 -57 -78 -25 16 -27 39 -6 68 21 29 45 33 63 10z m49 -206 c14 -25 14 -29 -5 -55 -23 -31 -81 -44 -95 -21 -15 24 -9 61 13 85 29 31 67 27 87 -9z"/>
<path d="M1652 3073 l3 -238 238 -3 237 -2 0 240 0 240 -240 0 -240 0 2 -237z m416 5 l2 -178 -180 0 -180 0 0 173 c0 96 3 177 7 181 4 3 84 5 177 4 l171 -3 3 -177z"/>
<path d="M1790 3074 l0 -105 98 3 97 3 0 100 0 100 -97 2 -98 1 0 -104z"/>
<path d="M2212 3143 l3 -168 27 -3 c24 -3 27 0 30 35 l3 38 103 3 c101 3 102 3 102 27 0 25 0 25 -105 25 l-106 0 3 78 3 77 68 3 c64 3 67 4 67 27 0 25 0 25 -100 25 l-100 0 2 -167z"/>
<path d="M2280 2935 c0 -21 5 -25 30 -25 25 0 30 4 30 25 0 21 -5 25 -30 25 -25 0 -30 -4 -30 -25z"/>
<path d="M2420 2935 c0 -21 5 -25 30 -25 25 0 30 4 30 25 0 21 -5 25 -30 25 -25 0 -30 -4 -30 -25z"/>
<path d="M2210 2725 l0 -175 65 0 65 0 0 30 c0 28 -3 30 -35 30 l-35 0 0 145 0 145 -30 0 -30 0 0 -175z"/>
<path d="M1657 2753 c-4 -3 -7 -66 -7 -140 l0 -133 30 0 30 0 0 140 c0 140 0 140 -23 140 -13 0 -27 -3 -30 -7z"/>
<path d="M1790 2731 c0 -28 3 -31 31 -31 27 0 30 3 27 28 -2 21 -9 28 -30 30 -25 3 -28 0 -28 -27z"/>
<path d="M2077 2754 c-4 -4 -7 -18 -7 -31 0 -19 5 -23 31 -23 27 0 30 3 27 28 -3 26 -34 43 -51 26z"/>
<path d="M1930 2655 c0 -24 2 -25 65 -25 63 0 65 1 65 25 0 24 -2 25 -65 25 -63 0 -65 -1 -65 -25z"/>
<path d="M2072 2583 c2 -22 9 -29 31 -31 24 -3 27 0 27 27 0 28 -3 31 -31 31 -27 0 -30 -3 -27 -27z"/>
<path d="M1790 2510 c0 -28 -3 -30 -35 -30 l-35 0 0 -69 0 -70 -32 -3 -33 -3 0 -100 0 -100 165 0 165 0 3 27 3 27 -138 3 -138 3 0 40 c0 38 2 40 33 43 l32 3 0 65 0 64 40 0 c38 0 40 -2 40 -29 0 -26 4 -30 33 -33 28 -3 32 -7 35 -35 l3 -33 170 0 169 0 0 65 0 65 71 0 70 0 -3 33 -3 32 -95 0 -95 0 -3 -67 -3 -68 -74 0 -75 0 0 35 c0 33 2 35 35 35 33 0 35 2 35 35 0 33 -2 35 -35 35 -32 0 -35 2 -35 30 l0 30 -65 0 -65 0 0 -30 c0 -28 -2 -30 -40 -30 -38 0 -40 2 -40 30 0 27 -3 30 -30 30 -27 0 -30 -3 -30 -30z"/>
<path d="M2350 2275 l0 -65 30 0 30 0 0 65 0 65 -30 0 -30 0 0 -65z"/>
<path d="M2072 2163 l3 -28 103 -3 102 -3 0 -34 c0 -33 2 -35 35 -35 33 0 35 -2 35 -35 0 -32 2 -35 30 -35 28 0 30 3 30 35 0 33 2 35 35 35 l35 0 0 65 0 65 -29 0 c-26 0 -30 -4 -33 -32 -3 -30 -6 -33 -38 -33 -32 0 -35 3 -38 33 l-3 32 -135 0 -135 0 3 -27z"/>
<path d="M1650 1820 c0 -210 2 -231 18 -237 9 -4 116 -7 237 -8 l220 0 3 238 2 237 -240 0 -240 0 0 -230z m418 -7 l-3 -178 -175 0 -175 0 -3 178 -2 177 180 0 180 0 -2 -177z"/>
<path d="M1790 1810 l0 -101 98 3 97 3 3 98 3 97 -101 0 -100 0 0 -100z"/>
<path d="M2212 1988 l3 -63 33 -3 c32 -3 33 -5 30 -40 -3 -34 -6 -37 -36 -40 -29 -3 -33 -6 -30 -30 l3 -27 95 0 95 0 3 27 c3 24 -1 27 -30 30 l-33 3 -3 67 -3 67 -32 3 c-28 3 -32 7 -35 36 -3 28 -7 32 -33 32 l-30 0 3 -62z"/>
<path d="M2210 1670 c0 -27 3 -30 30 -30 27 0 30 3 30 30 0 27 -3 30 -30 30 -27 0 -30 -3 -30 -30z"/>
<path d="M2350 1640 l0 -60 30 0 30 0 0 60 0 60 -30 0 -30 0 0 -60z"/>
<path d="M1303 1212 c-18 -21 -23 -40 -23 -89 l0 -63 135 0 135 0 0 -31 c0 -66 -7 -69 -147 -69 -125 0 -126 0 -108 -20 16 -18 31 -20 161 -20 142 0 143 0 163 26 16 21 21 41 21 90 l0 64 -130 0 -130 0 0 38 c0 21 5 43 12 50 8 8 49 12 118 12 94 0 109 2 125 20 18 20 17 20 -146 20 l-164 0 -22 -28z"/>
<path d="M1690 1080 l0 -160 158 0 c145 0 160 2 177 20 17 19 16 19 -111 22 l-129 3 0 115 0 115 114 3 c80 2 117 7 127 17 8 7 14 16 14 19 0 3 -79 6 -175 6 l-175 0 0 -160z"/>
<path d="M2080 1080 l0 -160 45 0 45 0 0 70 0 70 90 0 90 0 0 -70 0 -70 45 0 45 0 0 160 0 160 -180 0 -180 0 0 -160z m268 68 l3 -48 -90 0 -91 0 0 43 c0 24 3 47 7 51 4 4 43 5 88 4 l80 -3 3 -47z"/>
<path d="M2738 1156 l-3 -84 -88 59 c-49 32 -91 59 -94 59 -2 0 -16 9 -30 20 -14 11 -30 20 -34 20 -5 0 -9 -70 -9 -155 l0 -155 45 0 45 0 0 85 c0 50 4 85 10 85 6 0 63 -36 127 -80 64 -44 120 -80 125 -80 4 0 8 70 8 155 l0 155 -50 0 -49 0 -3 -84z"/>
<path d="M3200 1080 l0 -160 45 0 45 0 0 160 0 160 -45 0 -45 0 0 -160z"/>
<path d="M3335 1220 c14 -16 31 -20 82 -20 l63 0 0 -140 0 -140 45 0 44 0 3 138 3 137 61 3 c46 2 66 8 79 22 18 20 16 20 -190 20 -207 0 -208 0 -190 -20z"/>
<path d="M2905 1070 c-18 -20 -17 -20 104 -20 119 0 121 1 111 20 -10 18 -21 20 -104 20 -80 0 -95 -3 -111 -20z"/>
</g>
</svg>
